<svg viewBox="0 0 100 47" fill="none" xmlns="http://www.w3.org/2000/svg">
<g clip-path="url(#clip0_1532_21)">
<path fill-rule="evenodd" clip-rule="evenodd" d="M50.3523 1.96565C50.5879 2.51388 50.5739 3.116 51.2225 3.18863C51.0592 3.53068 51.1035 3.5916 51.0895 3.61502C51.0779 3.63142 51.0335 3.62674 50.8376 3.7064V4.61074H51.3532C50.7886 5.79388 52.1534 6.26479 52.4567 7.33079C52.6854 8.13673 52.6364 9.13245 52.6434 9.91027H53.04V15.9853L56.2433 17.2364V18.1524H55.513V24.5929L56.0123 25.1623V29.5551H59.2506V31.249L61.9803 28.3345L65.6386 26.4508H91.0364L93.4324 26.992L100 31.6192L98.9711 32.9124V43.8981L99.615 47H0.384956L1.02888 43.7692V32.9124L0 31.6192L2.07876 30.6047L6.32962 26.9897L9.13163 26.4485H34.2378L37.9474 28.2736L40.5371 31.2302V29.5504H43.8804V25.1576L44.3983 24.5883V18.1478H43.7567V17.2317L46.9693 15.9806V9.90559H47.3636C47.4056 8.60062 47.3053 8.08988 47.5503 7.32611C47.9236 6.15468 49.0621 5.83136 48.6468 4.60605H49.1624V3.70171C48.9454 3.61502 48.9128 3.62908 48.9081 3.60565C48.9011 3.57754 48.9291 3.50257 48.7775 3.18628C49.5217 3.10428 49.4704 2.6076 49.657 1.968C49.2674 1.82743 48.9898 1.45257 48.9898 1.01446C48.9898 0.454514 49.4424 0 50 0C50.5576 0 51.0102 0.454514 51.0102 1.01446C51.0102 1.45023 50.7372 1.8204 50.3546 1.96565H50.3523ZM50.0373 18.1501V45.3389H97.5759L97.3123 44.0691V32.3314L97.6039 31.9659L92.7442 28.543L90.845 28.1143H66.0305L62.9812 29.684L57.5895 35.438V31.2162H54.2182V25.6519L53.8519 25.0826V18.1524H50.0327L50.0373 18.1501Z" fill="white"/>
<path d="M50 18H54V25L54.5 25.5V27V31H57.5V35.5L62.5 30L66.5 28H90.5L93 28.5L98 32L97.5 32.5V44.5L98 46H49.5L50 18Z" fill="white"/>
</g>
<defs>
<clipPath id="clip0_1532_21">
<rect width="100" height="47" fill="white"/>
</clipPath>
</defs>
</svg>
