<svg width="32" height="15" viewBox="0 0 32 15" fill="none" xmlns="http://www.w3.org/2000/svg">
<path fill-rule="evenodd" clip-rule="evenodd" d="M16.1127 0.627337C16.1881 0.802303 16.1837 0.994467 16.3912 1.01765C16.3389 1.12681 16.3531 1.14625 16.3487 1.15373C16.3449 1.15897 16.3307 1.15747 16.268 1.18289V1.47151H16.433C16.2523 1.84911 16.6891 1.9994 16.7861 2.33961C16.8593 2.59683 16.8436 2.91461 16.8459 3.16285H16.9728V5.10169L17.9979 5.50097V5.79333H17.7642V7.84881L17.9239 8.03051V9.43248H18.9602V9.97308L19.8337 9.04292L21.0043 8.44175H29.1316L29.8984 8.61448L32 10.0912L31.6708 10.504V14.01L31.8768 15H0.123186L0.329243 13.9689V10.504L0 10.0912L0.665205 9.76746L2.02548 8.61373L2.92212 8.44101H10.9561L12.1432 9.02348L12.9719 9.9671V9.43099H14.0417V8.02901L14.2075 7.84732V5.79184H14.0021V5.49948L15.0302 5.10019V3.16136H15.1564C15.1698 2.74488 15.1377 2.58188 15.2161 2.33812C15.3355 1.96426 15.6999 1.86107 15.567 1.47002H15.732V1.1814C15.6625 1.15373 15.6521 1.15822 15.6506 1.15074C15.6484 1.14177 15.6573 1.11784 15.6088 1.0169C15.847 0.990728 15.8305 0.832212 15.8903 0.628084C15.7656 0.583221 15.6767 0.463586 15.6767 0.323763C15.6767 0.145058 15.8216 0 16 0C16.1784 0 16.3233 0.145058 16.3233 0.323763C16.3233 0.462838 16.2359 0.580978 16.1135 0.627337H16.1127ZM16.0119 5.79258V14.4699H31.2243L31.1399 14.0646V10.3185L31.2333 10.2019L29.6781 9.10947L29.0704 8.97263H21.1298L20.154 9.47361L18.4286 11.31V9.96261H17.3498V8.18678L17.2326 8.00508V5.79333H16.0105L16.0119 5.79258Z" fill="white" fill-opacity="0.9"/>
</svg>
